<?xml version="1.0" encoding="utf-8"?>
<!-- Generator: Adobe Illustrator 20.0.0, SVG Export Plug-In . SVG Version: 6.00 Build 0)  -->
<svg version="1.1" id="Layer_1" xmlns="http://www.w3.org/2000/svg" xmlns:xlink="http://www.w3.org/1999/xlink" x="0px" y="0px"
	 viewBox="0 0 612 792" style="enable-background:new 0 0 612 792;" xml:space="preserve">
<style type="text/css">
	.st0{fill:#231F20;}
</style>
<path class="st0" d="M573.3,594l-27.1-18.1l7.2-6.1l-30.9-25.2l10.3-12l-20.5-14.1l0.4-10.8l-22.2-8.9l-2.3-0.9l1-1.2h0l5.4-6.6
	l-11.7-3.4h0l-6-1.7l-7.2-13l-6.1-7.2l3.7-2.7l15.3-11.1l5.2-3.8l-2-7.4l8.8-4.9l4.1-2.3l12.8-6.2l17-8.3h0l1.8-0.9
	c0,0-1.4-0.9-3.9-2.3c-5.7-3.3-17.3-9.3-30.9-13.6c-8-2.5-16.7-4.4-25.3-4.7c-5.5-0.2-10.9,0.2-16.1,1.4l2.9-10.1l-14.2,0.6
	l-21.7,0.9l-13.7,0.6l0.9-17.4c0,0-6,3.6-15.2,7.9c-5.1,2.4-11.1,4.9-17.7,7.2c-6,2.1-12.5,3.9-19,5.2c-7.2,1.4-14.4,2-21.4,1.4
	c-13.3-1.1-25.5-6.6-33.4-19.8c0,0-2.1-15,4.1-26.5c2.8-5.3,7.5-9.8,14.9-11.7c5.8-1.5,13.4-1.4,23.1,1.3c0.4,0.1,0.8,0.2,1.2,0.3
	c0,0,5.2,3.6,20.2-1.8c4.7-1.7,10.4-4.2,17.2-8.1c1.9-1.1,3.9-2.3,6-3.5l-5.4-9.7c0,0,3.1-3.1,8.5-7.5c4-3.2,9.2-7.2,15.2-11.1
	c4.9-3.2,10.5-6.4,16.4-9.2c5.7-2.7,11.8-5,18-6.7c6.7-1.8,13.6-2.8,20.6-2.7l-26.7-7l-22.7-5.9l7-10.2c0,0-6.9-0.1-16.7,0.3
	c-6.2,0.3-13.6,0.8-21.3,1.6c-6.8,0.8-13.8,1.9-20.2,3.4c-4,0.9-7.8,2-11.2,3.3L355,250l1.1-2.8l-2.5,0.5l-9,1.7l3.1-10.9l1.2-4.2
	c0,0-1.2,0.2-3.5,0.7c-3.9,0.8-10.7,2.5-19.2,5c-5.6,1.7-11.8,3.7-18.4,6.2c-5.7,2.2-11.7,4.6-17.6,7.5c-5.6,2.7-11.2,5.7-16.5,9.1
	c-5.4,3.4-10.5,7.2-15.1,11.3c-1.4,1.3-2.8,2.6-4.1,4c0,0,0.6-6.7-3.5-15.9c-1.8-4.1-4.4-8.6-8.4-13.3c-7.1-8.4-18.5-17.2-36.7-24.3
	l-0.2,1.3l-4.3,28.3l-0.1,0.4l-9.5,9.5l0.4,10.8l0.4,9.8l-15.1,2.1l-10.4,1.4c0,0,10,15.5,8.8,31.1c-0.6,6.9-3.3,13.7-10.1,19.3
	c-3.2,2.6-7.2,4.9-12.4,6.8c-0.3-0.2-0.7-0.4-1-0.7c-0.5-0.3-1.1-0.7-1.6-1c-0.5-0.3-1-0.7-1.5-1c-0.5-0.3-1-0.7-1.5-1
	c-0.5-0.3-1-0.7-1.5-1c-0.5-0.3-1-0.7-1.5-1c-0.5-0.3-0.9-0.7-1.4-1c-0.5-0.3-0.9-0.7-1.4-1c-0.5-0.3-0.9-0.7-1.4-1
	c-0.5-0.3-0.9-0.7-1.4-1c-0.4-0.3-0.9-0.7-1.3-1c-0.4-0.3-0.9-0.7-1.3-1c-0.4-0.3-0.9-0.7-1.3-1c-0.4-0.3-0.9-0.7-1.3-1
	c-0.4-0.3-0.9-0.7-1.3-1c-0.4-0.3-0.9-0.7-1.3-1c-0.4-0.3-0.9-0.7-1.3-1c-0.4-0.3-0.8-0.7-1.2-1c-0.4-0.3-0.8-0.7-1.2-1
	c-0.4-0.3-0.8-0.7-1.2-1c-0.4-0.3-0.8-0.7-1.2-1c-0.4-0.3-0.8-0.7-1.2-1c-0.4-0.3-0.8-0.7-1.2-1c-0.4-0.3-0.8-0.7-1.2-1
	c-0.4-0.3-0.8-0.7-1.2-1c-0.4-0.3-0.7-0.7-1.1-1c-0.4-0.3-0.7-0.7-1.1-1c-0.4-0.3-0.7-0.7-1.1-1c-0.4-0.3-0.7-0.7-1.1-1
	c-0.4-0.3-0.7-0.7-1.1-1c-0.4-0.3-0.7-0.7-1.1-1c-0.4-0.3-0.7-0.7-1.1-1c-0.4-0.3-0.7-0.7-1.1-1c-0.3-0.3-0.7-0.7-1-1
	c-0.3-0.3-0.7-0.7-1-1c-0.3-0.3-0.7-0.7-1-1c-0.3-0.3-0.7-0.7-1-1c-0.3-0.3-0.7-0.7-1-1c-0.3-0.3-0.7-0.6-1-1c-0.3-0.3-0.7-0.7-1-1
	c-0.3-0.3-0.7-0.7-1-1c-0.3-0.3-0.6-0.6-1-1c-0.3-0.3-0.6-0.6-0.9-1c-0.3-0.3-0.6-0.7-0.9-1c-0.3-0.3-0.6-0.6-0.9-1
	c-0.3-0.3-0.6-0.6-0.9-1c-0.3-0.3-0.6-0.7-0.9-1c-0.3-0.3-0.6-0.6-0.9-1c-0.3-0.3-0.6-0.6-0.9-1c-0.3-0.3-0.6-0.6-0.9-1
	c-0.3-0.3-0.6-0.7-0.9-1c-0.3-0.3-0.6-0.6-0.9-1c-0.3-0.3-0.6-0.6-0.9-1c-0.3-0.3-0.6-0.6-0.9-1c-0.3-0.3-0.6-0.6-0.9-1
	c-0.3-0.3-0.6-0.6-0.8-1c-0.3-0.3-0.6-0.6-0.8-1c-0.3-0.3-0.6-0.6-0.8-1c-0.3-0.3-0.6-0.6-0.8-1c-0.3-0.3-0.5-0.6-0.8-1
	c-0.3-0.3-0.5-0.6-0.8-1c-0.3-0.3-0.5-0.6-0.8-1c-0.3-0.3-0.5-0.6-0.8-1c-0.3-0.3-0.5-0.6-0.8-1c-0.3-0.3-0.5-0.6-0.8-1
	c-0.3-0.3-0.5-0.6-0.8-1c-0.3-0.3-0.5-0.6-0.8-1c-0.3-0.3-0.5-0.6-0.8-1c-0.3-0.3-0.5-0.6-0.8-1c-0.3-0.3-0.5-0.6-0.8-1
	c-0.3-0.3-0.5-0.6-0.8-1c-0.3-0.3-0.5-0.6-0.8-1c-0.2-0.3-0.5-0.6-0.7-1c-0.2-0.3-0.5-0.6-0.7-1c-0.2-0.3-0.5-0.6-0.7-1
	c-0.2-0.3-0.5-0.6-0.7-1c-0.2-0.3-0.5-0.6-0.7-1c-0.2-0.3-0.5-0.6-0.7-1c-0.2-0.3-0.5-0.6-0.7-1c-0.2-0.3-0.5-0.6-0.7-1
	c-0.2-0.3-0.5-0.6-0.7-1c-0.2-0.3-0.5-0.6-0.7-1c-0.2-0.3-0.5-0.6-0.7-1c-0.2-0.3-0.5-0.6-0.7-1c-0.2-0.3-0.5-0.6-0.7-1
	c-0.2-0.3-0.5-0.6-0.7-1c-0.2-0.3-0.4-0.6-0.7-1c-0.2-0.3-0.4-0.6-0.7-1c-0.2-0.3-0.4-0.6-0.7-1c-0.2-0.3-0.4-0.6-0.7-1
	c-0.2-0.3-0.4-0.6-0.7-1c-0.2-0.3-0.4-0.6-0.6-1c-0.2-0.3-0.4-0.6-0.6-1c-0.2-0.3-0.4-0.6-0.6-1c-0.2-0.3-0.4-0.6-0.6-1
	c-0.2-0.3-0.4-0.6-0.6-1c-0.2-0.3-0.4-0.6-0.6-1c-0.2-0.3-0.4-0.6-0.6-1c-0.2-0.3-0.4-0.6-0.6-1c-0.2-0.3-0.4-0.6-0.6-1
	c-0.2-0.3-0.4-0.6-0.6-1c-0.2-0.3-0.4-0.6-0.6-1c-0.2-0.3-0.4-0.6-0.6-1c-0.2-0.3-0.4-0.6-0.6-1c-0.2-0.3-0.4-0.6-0.6-1
	c-0.2-0.3-0.4-0.6-0.6-1c-0.2-0.3-0.4-0.6-0.6-1c-0.2-0.3-0.4-0.6-0.6-1c-0.2-0.3-0.4-0.6-0.6-1c-0.2-0.3-0.4-0.6-0.6-1
	c-0.2-0.3-0.4-0.6-0.6-1c-0.2-0.3-0.4-0.6-0.6-1c-0.2-0.3-0.4-0.6-0.6-1c-0.2-0.3-0.4-0.6-0.6-1c-0.2-0.3-0.4-0.6-0.5-1
	c-0.2-0.3-0.4-0.6-0.5-1c-0.2-0.3-0.4-0.6-0.5-1c-0.2-0.3-0.4-0.6-0.5-1c-0.2-0.3-0.4-0.6-0.5-1c-0.2-0.3-0.4-0.6-0.5-1
	c-0.2-0.3-0.4-0.6-0.5-1c-0.2-0.3-0.4-0.6-0.5-1c-0.2-0.3-0.4-0.6-0.5-1c-0.2-0.3-0.3-0.6-0.5-1c-0.2-0.3-0.3-0.6-0.5-1
	c-0.2-0.3-0.3-0.6-0.5-1c-0.2-0.3-0.3-0.6-0.5-1c-0.2-0.3-0.3-0.6-0.5-1c-0.2-0.3-0.3-0.6-0.5-1c-0.2-0.3-0.3-0.6-0.5-1
	c-0.2-0.3-0.3-0.6-0.5-1c-0.2-0.3-0.3-0.6-0.5-1c-0.2-0.3-0.3-0.6-0.5-1c-0.2-0.3-0.3-0.6-0.5-1c-0.2-0.3-0.3-0.6-0.5-1
	c-0.2-0.3-0.3-0.6-0.5-1c-0.2-0.3-0.3-0.6-0.5-1c-0.2-0.3-0.3-0.6-0.5-1c-0.2-0.3-0.3-0.6-0.5-1c-0.2-0.3-0.3-0.6-0.5-1
	c-0.2-0.3-0.3-0.6-0.5-1c-0.2-0.3-0.3-0.6-0.5-1c-0.2-0.3-0.3-0.6-0.5-1c-0.2-0.3-0.3-0.6-0.5-1c-0.2-0.3-0.3-0.6-0.5-1
	c-0.2-0.3-0.3-0.6-0.4-1c-0.1-0.3-0.3-0.6-0.4-1c-0.1-0.3-0.3-0.6-0.4-1c-0.1-0.3-0.3-0.6-0.4-1c-0.1-0.3-0.3-0.6-0.4-1
	c-0.1-0.3-0.3-0.6-0.4-1c-0.1-0.3-0.3-0.6-0.4-1c-0.1-0.3-0.3-0.6-0.4-1c-0.1-0.3-0.3-0.6-0.4-1c-0.1-0.3-0.3-0.6-0.4-1
	c-0.1-0.3-0.3-0.6-0.4-1c-0.1-0.3-0.3-0.6-0.4-1c-0.1-0.3-0.3-0.6-0.4-1c-0.1-0.3-0.3-0.6-0.4-1c-0.1-0.3-0.3-0.6-0.4-0.9
	c-0.1-0.3-0.3-0.6-0.4-1c-0.1-0.3-0.3-0.6-0.4-0.9c-0.1-0.3-0.3-0.6-0.4-1c-0.1-0.3-0.3-0.6-0.4-0.9c-0.1-0.3-0.3-0.6-0.4-1
	c-0.1-0.3-0.3-0.6-0.4-0.9c-0.1-0.3-0.3-0.6-0.4-1c-0.1-0.3-0.3-0.6-0.4-0.9c-0.1-0.3-0.3-0.6-0.4-1c-0.1-0.3-0.3-0.6-0.4-0.9
	c-0.1-0.3-0.3-0.6-0.4-1c-0.1-0.3-0.3-0.6-0.4-1c-0.1-0.3-0.2-0.6-0.4-0.9c-0.1-0.3-0.2-0.6-0.4-0.9c-0.1-0.3-0.2-0.6-0.4-1
	c-0.1-0.3-0.2-0.6-0.4-1c-0.1-0.3-0.2-0.6-0.4-0.9c-0.1-0.3-0.2-0.6-0.4-1c-0.1-0.3-0.2-0.6-0.4-0.9c-0.1-0.3-0.2-0.6-0.4-1
	c-0.1-0.3-0.2-0.6-0.3-0.9c-0.1-0.3-0.2-0.6-0.3-1c-0.1-0.3-0.2-0.6-0.3-0.9c-0.1-0.3-0.2-0.6-0.3-1c-0.1-0.3-0.2-0.6-0.3-1
	c-0.1-0.3-0.2-0.6-0.3-0.9c-0.1-0.3-0.2-0.6-0.3-0.9c-0.1-0.3-0.2-0.6-0.3-0.9c-0.1-0.2-0.1-0.3-0.2-0.5c-0.1-0.2-0.1-0.3-0.2-0.5
	c-0.1-0.2-0.1-0.3-0.2-0.5c-0.1-0.2-0.1-0.3-0.2-0.5c-0.1-0.2-0.1-0.3-0.2-0.5c-0.1-0.2-0.1-0.3-0.2-0.5c-0.1-0.2-0.1-0.3-0.2-0.5
	c-0.1-0.2-0.1-0.3-0.2-0.5c-0.1-0.2-0.1-0.3-0.2-0.5c-0.1-0.2-0.1-0.3-0.2-0.5c-0.1-0.2-0.1-0.3-0.2-0.5c-0.1-0.2-0.1-0.3-0.2-0.5
	c-0.1-0.2-0.1-0.3-0.2-0.5c-0.1-0.2-0.1-0.3-0.2-0.5c-0.1-0.2-0.1-0.3-0.2-0.5c-0.1-0.2-0.1-0.3-0.2-0.5c-0.1-0.2-0.1-0.3-0.2-0.5
	c-0.1-0.2-0.1-0.3-0.2-0.5c-0.1-0.2-0.1-0.3-0.2-0.5c-0.1-0.2-0.1-0.3-0.2-0.5c-0.1-0.2-0.1-0.3-0.1-0.5c-0.1-0.2-0.1-0.3-0.2-0.5
	c0-0.2-0.1-0.3-0.1-0.5c0-0.2-0.1-0.3-0.2-0.5c-0.1-0.2-0.1-0.3-0.1-0.5c-0.1-0.2-0.1-0.3-0.1-0.5c0-0.2-0.1-0.3-0.1-0.5
	s-0.1-0.3-0.1-0.5c0-0.2-0.1-0.3-0.1-0.5c0-0.2-0.1-0.3-0.1-0.5c0-0.2-0.1-0.3-0.1-0.5c0-0.2-0.1-0.3-0.1-0.5c0-0.2-0.1-0.3-0.1-0.5
	c0-0.2-0.1-0.3-0.1-0.5c0-0.2-0.1-0.3-0.1-0.5s-0.1-0.3-0.1-0.5c0-0.2-0.1-0.3-0.1-0.5c0-0.2-0.1-0.3-0.1-0.5c0-0.2-0.1-0.3-0.1-0.5
	c0-0.2-0.1-0.3-0.1-0.5c0-0.2-0.1-0.3-0.1-0.5c0-0.2-0.1-0.3-0.1-0.5c0-0.2-0.1-0.3-0.1-0.5c0-0.2-0.1-0.3-0.1-0.5
	c0-0.2-0.1-0.3-0.1-0.5c0-0.2-0.1-0.3-0.1-0.5c0-0.2-0.1-0.3-0.1-0.5c0-0.2-0.1-0.3-0.1-0.5c0-0.2-0.1-0.3-0.1-0.5
	c0-0.2-0.1-0.3-0.1-0.5c0-0.2-0.1-0.3-0.1-0.5c-0.9-3.4-1.3-5.3-1.3-5.3l0,0l0,0l-1.8,5.2l-0.2,0.5l-0.2,0.5L7.4,141l-0.2,0.5
	L7.1,142l-0.2,0.5l-0.2,0.5l-0.2,0.5l-0.2,0.5l-0.2,0.5l-0.2,0.5L6,145.2l-0.2,0.5l-0.2,0.5l-0.2,0.5l-0.2,0.5l-0.2,0.5L5,148
	l-0.2,0.5l-0.2,0.5l-0.2,0.5l-0.2,0.5l-0.2,0.5L4,150.8l-0.2,0.5l-0.2,0.5l-0.2,0.5l-0.2,0.5l0,0.1c0,0.1,0.1,0.3,0.1,0.4
	c0,0.2,0.1,0.3,0.1,0.5c0,0.2,0.1,0.3,0.1,0.5c0,0.2,0.1,0.3,0.1,0.5c0,0.2,0.1,0.3,0.1,0.5c0,0.2,0.1,0.3,0.1,0.5
	c0,0.2,0.1,0.3,0.1,0.5c0,0.2,0.1,0.3,0.1,0.5c0,0.2,0.1,0.3,0.1,0.5c0,0.2,0.1,0.3,0.1,0.5c0,0.2,0.1,0.3,0.1,0.5
	c0,0.2,0.1,0.3,0.1,0.5c0,0.2,0.1,0.3,0.1,0.5c0,0.2,0.1,0.3,0.1,0.5c0,0.2,0.1,0.3,0.1,0.5c0,0.2,0.1,0.3,0.1,0.5
	c0,0.2,0.1,0.3,0.1,0.5c0,0.2,0.1,0.3,0.1,0.5c0,0.2,0.1,0.3,0.1,0.5c0,0.2,0.1,0.3,0.1,0.5c0,0.2,0.1,0.3,0.1,0.5
	c0,0.2,0.1,0.3,0.1,0.5s0.1,0.3,0.1,0.5c0.1,0.3,0.1,0.6,0.2,0.9c0.1,0.3,0.2,0.6,0.2,0.9c0.1,0.3,0.2,0.6,0.2,0.9
	c0.1,0.3,0.2,0.6,0.2,0.9c0.1,0.3,0.2,0.6,0.2,0.9c0.1,0.3,0.1,0.6,0.2,0.9c0.1,0.3,0.1,0.6,0.2,0.9c0.1,0.3,0.2,0.6,0.2,0.9
	c0.1,0.3,0.2,0.6,0.3,0.9c0.1,0.3,0.2,0.6,0.3,0.9c0.1,0.3,0.2,0.6,0.3,0.9c0.1,0.3,0.2,0.6,0.3,0.9c0.1,0.3,0.2,0.6,0.3,0.9
	c0.1,0.3,0.2,0.6,0.3,0.9c0.1,0.3,0.2,0.6,0.3,0.9c0.1,0.3,0.2,0.6,0.3,0.9c0.1,0.3,0.2,0.6,0.3,0.9c0.1,0.3,0.2,0.6,0.3,0.9
	c0.1,0.3,0.2,0.6,0.3,0.9c0.1,0.3,0.2,0.6,0.3,0.9c0.1,0.3,0.2,0.6,0.3,0.9c0.1,0.3,0.2,0.6,0.3,0.9c0.1,0.3,0.2,0.6,0.3,0.9
	c0.1,0.3,0.2,0.6,0.3,0.9c0.1,0.3,0.2,0.6,0.3,0.9c0.1,0.3,0.2,0.6,0.3,1c0.1,0.3,0.2,0.6,0.3,0.9c0.1,0.3,0.2,0.6,0.3,1
	c0.1,0.3,0.2,0.6,0.3,0.9c0.1,0.3,0.2,0.6,0.3,1c0.1,0.3,0.2,0.6,0.3,1c0.1,0.3,0.2,0.6,0.4,0.9c0.1,0.3,0.2,0.6,0.4,1
	c0.1,0.3,0.2,0.6,0.4,0.9c0.1,0.3,0.2,0.6,0.4,1c0.1,0.3,0.2,0.6,0.4,0.9c0.1,0.3,0.2,0.6,0.4,1c0.1,0.3,0.3,0.6,0.4,0.9
	c0.1,0.3,0.3,0.6,0.4,1c0.1,0.3,0.3,0.6,0.4,1c0.1,0.3,0.3,0.6,0.4,0.9s0.3,0.6,0.4,0.9c0.1,0.3,0.3,0.6,0.4,1
	c0.1,0.3,0.3,0.6,0.4,1c0.1,0.3,0.3,0.6,0.4,1c0.1,0.3,0.3,0.6,0.4,1c0.1,0.3,0.3,0.6,0.4,0.9c0.1,0.3,0.3,0.6,0.4,1
	c0.1,0.3,0.3,0.6,0.4,1c0.1,0.3,0.3,0.6,0.4,1c0.1,0.3,0.3,0.6,0.4,1c0.1,0.3,0.3,0.6,0.4,1c0.1,0.3,0.3,0.6,0.4,1
	c0.2,0.3,0.3,0.6,0.5,1c0.2,0.3,0.3,0.6,0.5,1c0.2,0.3,0.3,0.6,0.5,1c0.2,0.3,0.3,0.6,0.5,1c0.2,0.3,0.3,0.6,0.5,1
	c0.2,0.3,0.3,0.6,0.5,1c0.2,0.3,0.3,0.6,0.5,1c0.2,0.3,0.3,0.6,0.5,1c0.2,0.3,0.3,0.6,0.5,1c0.2,0.3,0.3,0.6,0.5,1
	c0.2,0.3,0.3,0.6,0.5,1c0.2,0.3,0.3,0.6,0.5,1c0.2,0.3,0.3,0.6,0.5,1c0.2,0.3,0.3,0.6,0.5,1c0.2,0.3,0.3,0.6,0.5,1
	c0.2,0.3,0.3,0.6,0.5,1c0.2,0.3,0.4,0.6,0.5,1c0.2,0.3,0.4,0.6,0.5,1c0.2,0.3,0.4,0.6,0.5,1c0.2,0.3,0.4,0.6,0.5,1
	c0.2,0.3,0.4,0.6,0.5,1c0.2,0.3,0.4,0.6,0.6,1c0.2,0.3,0.4,0.6,0.6,1c0.2,0.3,0.4,0.6,0.6,1c0.2,0.3,0.4,0.6,0.6,1
	c0.2,0.3,0.4,0.6,0.6,1c0.2,0.3,0.4,0.6,0.6,1c0.2,0.3,0.4,0.6,0.6,1c0.2,0.3,0.4,0.6,0.6,1c0.2,0.3,0.4,0.6,0.6,1
	c0.2,0.3,0.4,0.6,0.6,1c0.2,0.3,0.4,0.6,0.6,1c0.2,0.3,0.4,0.6,0.6,1c0.2,0.3,0.4,0.6,0.6,1c0.2,0.3,0.4,0.6,0.6,1
	c0.2,0.3,0.4,0.6,0.6,1c0.2,0.3,0.4,0.6,0.6,1c0.2,0.3,0.4,0.6,0.7,1c0.2,0.3,0.4,0.6,0.6,1c0.2,0.3,0.4,0.6,0.7,1
	c0.2,0.3,0.4,0.6,0.7,1c0.2,0.3,0.5,0.6,0.7,1c0.2,0.3,0.5,0.6,0.7,1c0.2,0.3,0.4,0.6,0.7,1c0.2,0.3,0.4,0.6,0.7,1
	c0.2,0.3,0.5,0.6,0.7,1c0.2,0.3,0.5,0.6,0.7,1c0.2,0.3,0.5,0.6,0.7,1c0.2,0.3,0.5,0.6,0.7,1c0.2,0.3,0.5,0.6,0.7,1
	c0.2,0.3,0.5,0.6,0.7,1c0.2,0.3,0.5,0.6,0.7,1c0.2,0.3,0.5,0.6,0.7,1c0.2,0.3,0.5,0.6,0.7,1c0.2,0.3,0.5,0.6,0.7,1
	c0.2,0.3,0.5,0.6,0.8,1c0.3,0.3,0.5,0.6,0.8,1c0.3,0.3,0.5,0.6,0.8,1c0.3,0.3,0.5,0.6,0.8,1c0.3,0.3,0.5,0.6,0.8,1
	c0.3,0.3,0.5,0.6,0.8,1c0.3,0.3,0.5,0.6,0.8,1c0.3,0.3,0.5,0.7,0.8,1c0.3,0.3,0.5,0.6,0.8,1c0.3,0.3,0.5,0.6,0.8,1
	c0.3,0.3,0.5,0.6,0.8,1c0.3,0.3,0.5,0.6,0.8,1c0.3,0.3,0.6,0.6,0.8,1c0.3,0.3,0.6,0.6,0.8,1c0.3,0.3,0.6,0.7,0.8,1
	c0.3,0.3,0.6,0.6,0.8,1c0.3,0.3,0.6,0.6,0.9,1c0.3,0.3,0.6,0.6,0.9,1c0.3,0.3,0.6,0.6,0.9,1c0.3,0.3,0.6,0.7,0.9,1
	c0.3,0.3,0.6,0.6,0.9,1c0.3,0.3,0.6,0.6,0.9,1c0.3,0.3,0.6,0.7,0.9,1c0.3,0.3,0.6,0.7,0.9,1c0.3,0.3,0.6,0.6,0.9,1
	c0.3,0.3,0.6,0.6,0.9,1c0.3,0.3,0.6,0.7,0.9,1c0.3,0.3,0.6,0.7,0.9,1c0.3,0.3,0.6,0.6,0.9,1c0.3,0.3,0.6,0.7,0.9,1
	c0.3,0.3,0.6,0.7,0.9,1c0.3,0.3,0.6,0.6,0.9,1c0.3,0.3,0.6,0.7,1,1c0.3,0.3,0.6,0.7,1,1c0.3,0.3,0.6,0.7,1,1c0.3,0.3,0.7,0.7,1,1
	c0.3,0.3,0.7,0.7,1,1c0.3,0.3,0.7,0.7,1,1c0.3,0.3,0.7,0.7,1,1c0.3,0.3,0.7,0.7,1,1c0.3,0.3,0.7,0.7,1,1c0.3,0.3,0.7,0.7,1,1
	c0.3,0.3,0.7,0.7,1,1c0.3,0.3,0.7,0.7,1,1c0.3,0.3,0.7,0.7,1,1c0.4,0.3,0.7,0.7,1,1c0.4,0.3,0.7,0.7,1.1,1c0.4,0.3,0.7,0.7,1.1,1
	c0.4,0.3,0.7,0.7,1.1,1c0.4,0.3,0.7,0.7,1.1,1c0.4,0.3,0.7,0.7,1.1,1c0.4,0.3,0.7,0.7,1.1,1c0.4,0.3,0.7,0.7,1.1,1
	c0.4,0.3,0.7,0.7,1.1,1c0.4,0.3,0.7,0.7,1.1,1c0.4,0.3,0.8,0.7,1.1,1c0.4,0.3,0.8,0.7,1.1,1c0.4,0.3,0.8,0.7,1.2,1
	c0.4,0.3,0.8,0.7,1.1,1c0.4,0.3,0.8,0.7,1.2,1c0.4,0.3,0.8,0.7,1.2,1c0.4,0.3,0.8,0.7,1.2,1c0.4,0.3,0.8,0.7,1.2,1
	c0.4,0.3,0.8,0.7,1.2,1c0.4,0.3,0.8,0.7,1.2,1c0.4,0.3,0.8,0.7,1.2,1c0.4,0.3,0.8,0.7,1.2,1c0.4,0.3,0.8,0.7,1.2,1
	c0.4,0.3,0.8,0.7,1.2,1c0.4,0.3,0.8,0.7,1.3,1c0.4,0.3,0.9,0.7,1.3,1c0.4,0.3,0.9,0.7,1.3,1c0.4,0.3,0.9,0.7,1.3,1
	c0.4,0.3,0.9,0.7,1.3,1c0.4,0.3,0.9,0.7,1.3,1c0.4,0.3,0.9,0.7,1.3,1c0.5,0.3,0.9,0.7,1.3,1c0.5,0.3,0.9,0.7,1.4,1
	c0.5,0.3,0.9,0.7,1.4,1c0.5,0.3,0.9,0.7,1.4,1c0.5,0.3,0.9,0.7,1.4,1c0.5,0.3,1,0.7,1.4,1c0.5,0.3,1,0.7,1.4,1c0.5,0.3,1,0.7,1.4,1
	c0.5,0.3,1,0.7,1.5,1c0.5,0.3,1,0.7,1.5,1c0.5,0.3,1,0.7,1.5,1c0.5,0.3,1,0.7,1.5,1c0.2,0.1,0.4,0.3,0.6,0.4
	c2.8,41.5-49.6,35.4-49.6,35.4l8.2,24.5l-18.9,8.4L85,434.5l-24.9,17.4c40.9,37.1,69.5,19.8,69.5,19.8
	c-14.9,41.9,2.7,103.9,2.7,103.9L144,565l3.2,11.3l11.7-12.4c2.5,26.1,23,65.9,23,65.9l6.1-10.8l33.5,38.6
	c-18.7-36.1-1.6-87.2-1.6-87.2l11.1,0.5c3.6-38.8-7.2-44.8-7.2-44.8c-35.3-38.7,13.6-55,13.6-55c53.5,4.3,45.6,96.6,45.6,96.6
	l15.2-8.6l20.2,45.4l7.7-7.1c7.7,33.7,51,59.8,51,59.8l-0.2-35.2l0.7-14.8l7.5-1.5l5-29.4l9.2,2.3l14.8,0.7l12.4,13.5l4.1-9.1
	l19.6,17.6l9.5-5.1l21.7,12.1l6.2-14.5l36.3,16.5l2.3-9.2l59.8,12.1c6.8,1.8,13.4,3.2,19.6,4.2c1.1,0.2,2.1,0.3,3.2,0.5L573.3,594z"
	/>
</svg>
