<svg version="1.1" xmlns="http://www.w3.org/2000/svg"
	 viewBox="0 0 612 642" style="enable-background:new 0 0 612 642;" xml:space="preserve">
<path d="M540.4,151.7H51.3c-23.1,0-41.9,18.8-41.9,41.9v304.2c0,8.3,2.5,16.1,6.7,22.6c7.5,11.6,20.5,19.3,35.3,19.3
	H359h180.9h0.5c17.2,0,32-10.4,38.4-25.2c2.2-5.1,3.5-10.8,3.5-16.7V193.6C582.4,170.5,563.6,151.7,540.4,151.7z M548.4,486
	l-21.3-5.3c-3.5-36.9-24.6-67-52.5-76.5v-15.7l-13.6-19.6c6.4-2.1,11-8.1,11-15.2c0-7.3-4.9-13.4-11.6-15.3v-40.1l6.8-1.1
	c0.3,0.3,0.5,0.6,0.8,0.9c14.8,14.8,49.5,7.8,66,0c4.9-2.3,9.8-5.2,14.2-8.2V486z M43.4,193.6c0-4.3,3.6-7.9,7.9-7.9h489.2
	c4.3,0,7.9,3.6,7.9,7.9V275c-9.6-0.1-21.4,0.2-31.6,1.4c-20.5,2.5-29.4,4.9-39.1,8.8l-17.2,3.3v-88.9c0-2.5-2-4.5-4.5-4.5
	s-4.5,2-4.5,4.5v90.6l-10.7,2l-62.2,9.7c-2.5,0.4-4.1,2.7-3.8,5.1c0.3,2.2,2.3,3.8,4.4,3.8c0.2,0,0.5,0,0.7-0.1l71.5-11.1v38.7
	c-6.7,1.9-11.6,8-11.6,15.3c0,7.1,4.6,13,11,15.2l-13.6,19.6v15.7c-17.5,5.9-32.4,20-41.8,38.8c-26.6-19.3-52.4-41.1-78-63.5
	c-41.4-36.1-85.6-70.5-135-79.5c-46.2-8.4-94.7-0.2-139.2,19.5V193.6z"/>
</svg>
