<svg id="Layer_1" data-name="Layer 1" xmlns="http://www.w3.org/2000/svg" viewBox="0 0 694.87 467.03"><title>Hub_app</title><path class="cls-1" d="M769,116.85l0,.05,0-.06Z" transform="translate(-74.11 -116.84)"/><path d="M170.39,284.2l8-24,39.92-120.29c-84.55,34.26-144.2,117.17-144.2,214A229.72,229.72,0,0,0,107.42,473.4l54.86-164.84Z" transform="translate(-74.11 -116.84)"/><path d="M325.86,124,280.67,266.69c-6,17.67,10.83,34.67,28.5,28.7,37.24-12.58,79.3-1.56,107.27,25.58,32.94,32,34.84,74.5,20.7,116.19l-44.67,130.4c84.1-34.48,143.34-117.15,143.34-213.67C535.81,233.45,443.56,134.57,325.86,124Z" transform="translate(-74.11 -116.84)"/><path d="M320.63,369.42c-13.82-11.51-34.44-13.07-50.91-5.84-36.09,15.83-44.83,67.31-56.38,101.07-9.78,28.57-86.84,40.14-105.88,8.82A230.79,230.79,0,0,0,285,583.87c21.37-62.3,52.42-152.69,52.49-152.88C344.2,411.38,336.38,382.54,320.63,369.42Z" transform="translate(-74.11 -116.84)"/></svg>