<?xml version="1.0" encoding="utf-8"?>
<!-- Generator: Adobe Illustrator 20.0.0, SVG Export Plug-In . SVG Version: 6.00 Build 0)  -->
<svg version="1.1" id="Layer_1" xmlns="http://www.w3.org/2000/svg" xmlns:xlink="http://www.w3.org/1999/xlink" x="0px" y="0px"
	 viewBox="0 0 612 792" style="enable-background:new 0 0 612 792;" xml:space="preserve">

<g>
	<g>
		<path class="st0" d="M95.2,253.7l11.3,3.5c-2.5,11.6-6.9,20.3-13.1,26c-6.2,5.7-13.8,8.6-22.8,8.6c-7.9,0-14.6-1.9-20.2-5.8
			c-5.6-3.8-10.2-10-13.7-18.5c-3.6-8.5-5.3-18.5-5.3-30c0-11.4,1.8-21.1,5.3-29c3.6-7.9,8.4-13.9,14.5-17.9c6.1-4,12.9-6,20.4-6
			c8.2,0,15.3,2.5,21.1,7.6c5.9,5.1,10,12.6,12.4,22.5l-11,3.2c-3.8-14.4-11.3-21.6-22.7-21.6c-5.7,0-10.6,1.4-14.7,4.4
			c-4.2,2.9-7.5,7.4-9.9,13.5c-2.5,6.1-3.7,13.9-3.7,23.3c0,14.2,2.5,24.8,7.5,31.9c5,7.1,11.6,10.6,19.9,10.6
			c6.1,0,11.4-2.2,15.9-6.5C90.7,269.1,93.7,262.5,95.2,253.7z"/>
		<path class="st0" d="M116.2,290V186.4h11.2v91.4h41.8V290H116.2z"/>
		<path class="st0" d="M170,290l32.8-103.6h12L249.5,290h-12.9l-9.9-31.4h-35.7l-9.2,31.4H170z M194.4,247.4h28.9l-8.8-28.7
			c-2.7-8.8-4.7-16-6-21.5c-1.1,6.6-2.6,13.2-4.7,19.8L194.4,247.4z"/>
		<path class="st0" d="M251,256.6l10.6-1.1c0.6,5.7,1.9,10.1,3.9,13.3c2,3.2,4.9,5.7,8.6,7.7c3.7,1.9,7.9,2.9,12.6,2.9
			c6.7,0,11.9-1.6,15.6-4.9c3.7-3.3,5.5-7.5,5.5-12.7c0-3-0.7-5.7-2-8c-1.3-2.3-3.4-4.1-6.1-5.6c-2.7-1.5-8.6-3.5-17.6-6.2
			c-8-2.4-13.7-4.8-17.1-7.2c-3.4-2.4-6-5.5-7.9-9.2c-1.9-3.7-2.8-7.9-2.8-12.5c0-8.4,2.7-15.2,8.1-20.6c5.4-5.3,12.7-8,21.9-8
			c6.3,0,11.8,1.2,16.6,3.7s8.4,6.1,11,10.7c2.6,4.7,4,10.2,4.2,16.5l-10.8,1c-0.6-6.7-2.6-11.7-6-15c-3.5-3.2-8.3-4.9-14.6-4.9
			c-6.4,0-11.2,1.4-14.6,4.3c-3.3,2.8-5,6.5-5,11.1c0,4.2,1.2,7.4,3.7,9.8c2.4,2.3,8,4.6,16.5,7c8.4,2.3,14.3,4.3,17.7,6
			c5.2,2.7,9.1,6.1,11.7,10.4c2.6,4.3,4,9.4,4,15.4c0,5.9-1.4,11.3-4.2,16.2c-2.8,4.9-6.6,8.6-11.3,11.1c-4.8,2.5-10.5,3.8-17.3,3.8
			c-10.5,0-18.9-3.2-25.1-9.5C254.5,276,251.2,267.4,251,256.6z"/>
		<path class="st0" d="M326.5,256.6l10.6-1.1c0.6,5.7,1.8,10.1,3.9,13.3c2,3.2,4.9,5.7,8.6,7.7c3.7,1.9,7.9,2.9,12.6,2.9
			c6.7,0,11.9-1.6,15.6-4.9c3.7-3.3,5.6-7.5,5.6-12.7c0-3-0.7-5.7-2-8c-1.3-2.3-3.4-4.1-6.1-5.6c-2.7-1.5-8.6-3.5-17.6-6.2
			c-8-2.4-13.7-4.8-17.1-7.2c-3.4-2.4-6-5.5-7.9-9.2c-1.9-3.7-2.8-7.9-2.8-12.5c0-8.4,2.7-15.2,8.1-20.6c5.4-5.3,12.7-8,21.9-8
			c6.3,0,11.8,1.2,16.6,3.7s8.4,6.1,11,10.7c2.6,4.7,4,10.2,4.2,16.5l-10.8,1c-0.6-6.7-2.6-11.7-6-15c-3.5-3.2-8.3-4.9-14.6-4.9
			c-6.4,0-11.2,1.4-14.6,4.3c-3.3,2.8-5,6.5-5,11.1c0,4.2,1.2,7.4,3.7,9.8c2.4,2.3,8,4.6,16.5,7c8.4,2.3,14.3,4.3,17.7,6
			c5.2,2.7,9.1,6.1,11.7,10.4c2.6,4.3,4,9.4,4,15.4c0,5.9-1.4,11.3-4.2,16.2c-2.8,4.9-6.6,8.6-11.3,11.1c-4.8,2.5-10.5,3.8-17.3,3.8
			c-10.5,0-18.9-3.2-25.1-9.5C330,276,326.8,267.4,326.5,256.6z"/>
		<path class="st0" d="M432.1,239.5c0-17.7,3.9-31.2,11.7-40.7c7.8-9.5,17.5-14.2,29-14.2c7.5,0,14.3,2.1,20.5,6.4
			c6.2,4.2,11.1,10.4,14.7,18.5c3.6,8.1,5.4,17.7,5.4,28.9c0,15.4-3.5,27.9-10.5,37.5c-7.7,10.6-17.7,16-30.2,16
			c-12.5,0-22.6-5.5-30.2-16.4C435.5,265.5,432.1,253.5,432.1,239.5z M443.7,239.7c0,12.8,2.8,22.7,8.4,29.7
			c5.6,7,12.5,10.6,20.5,10.6c8.2,0,15.2-3.6,20.7-10.7c5.6-7.1,8.4-17.6,8.4-31.4c0-8.9-1.4-16.9-4.3-23.9
			c-2.2-5.4-5.5-9.7-10-12.9c-4.5-3.2-9.3-4.8-14.6-4.8c-8.5,0-15.5,3.5-21,10.6C446.4,214,443.7,224.9,443.7,239.7z"/>
		<path class="st0" d="M524.8,290V186.4h57.3v12.2H536v32.1h39.9v12.2H536V290H524.8z"/>
	</g>
</g>
<g>
	<path d="M31.4,572.3L110,424c4-7.4,6.3-13.9,6.8-19.4c0.6-5.6,0.9-12.5,0.9-20.7c0-3.7-0.1-7.6-0.4-11.7c-0.3-4.1-1.1-7.8-2.3-10.9
		c-1.3-3.1-3.4-5.8-6.2-7.9c-2.9-2.1-7-3.2-12.4-3.2c-6.6,0-11.7,1.9-15.6,5.6c-3.8,3.7-5.8,9.1-5.8,16.2v24.8H31.4v-23.9
		c0-9.1,1.7-17.7,5.1-25.6c3.4-8,8-15,13.9-20.9c5.8-6,12.7-10.7,20.7-14.3c8-3.6,16.5-5.3,25.6-5.3c11.4,0,21.1,2.1,29.3,6.2
		c8.1,4.1,14.8,9.8,20.1,16.9c5.3,7.1,9.1,15.2,11.5,24.4c2.4,9.1,3.6,18.8,3.6,29.1c0,7.4-0.1,13.6-0.4,18.6
		c-0.3,5-0.9,9.8-1.7,14.3c-0.9,4.6-2.3,9.1-4.3,13.7c-2,4.6-4.7,10.1-8.1,16.7L82.6,569.7h78.6v43.6H31.4V572.3z"/>
	<path d="M186,371.9c0-10.3,1.8-19.4,5.3-27.3c3.6-8,8.3-14.8,14.3-20.5c6-5.7,12.9-10,20.7-13c7.8-3,16-4.5,24.6-4.5
		c8.5,0,16.7,1.5,24.6,4.5c7.8,3,14.7,7.3,20.7,13c6,5.7,10.7,12.5,14.3,20.5c3.6,8,5.3,17.1,5.3,27.3v178.6
		c0,10.3-1.8,19.4-5.3,27.3c-3.6,8-8.3,14.8-14.3,20.5c-6,5.7-12.9,10-20.7,13c-7.8,3-16,4.5-24.6,4.5c-8.5,0-16.7-1.5-24.6-4.5
		c-7.8-3-14.7-7.3-20.7-13c-6-5.7-10.8-12.5-14.3-20.5c-3.6-8-5.3-17.1-5.3-27.3V371.9z M229.6,550.5c0,6.3,2,11.5,6,15.6
		c4,4.1,9.1,6.2,15.4,6.2c6.3,0,11.4-2.1,15.4-6.2c4-4.1,6-9.3,6-15.6V371.9c0-6.3-2-11.5-6-15.6c-4-4.1-9.1-6.2-15.4-6.2
		c-6.3,0-11.4,2.1-15.4,6.2c-4,4.1-6,9.3-6,15.6V550.5z"/>
	<path d="M340.7,572.3L419.3,424c4-7.4,6.3-13.9,6.8-19.4c0.6-5.6,0.9-12.5,0.9-20.7c0-3.7-0.1-7.6-0.4-11.7
		c-0.3-4.1-1.1-7.8-2.3-10.9c-1.3-3.1-3.4-5.8-6.2-7.9c-2.9-2.1-7-3.2-12.4-3.2c-6.6,0-11.7,1.9-15.6,5.6c-3.8,3.7-5.8,9.1-5.8,16.2
		v24.8h-43.6v-23.9c0-9.1,1.7-17.7,5.1-25.6c3.4-8,8-15,13.9-20.9c5.8-6,12.7-10.7,20.7-14.3c8-3.6,16.5-5.3,25.6-5.3
		c11.4,0,21.1,2.1,29.3,6.2c8.1,4.1,14.8,9.8,20.1,16.9c5.3,7.1,9.1,15.2,11.5,24.4c2.4,9.1,3.6,18.8,3.6,29.1
		c0,7.4-0.1,13.6-0.4,18.6c-0.3,5-0.9,9.8-1.7,14.3c-0.9,4.6-2.3,9.1-4.3,13.7c-2,4.6-4.7,10.1-8.1,16.7L392,569.7h78.6v43.6H340.7
		V572.3z"/>
	<path d="M538.5,355.2l-43.6,32v-46.1l43.6-32h43.6v304.2h-43.6V355.2z"/>
</g>
</svg>
