<?xml version="1.0" encoding="utf-8"?>
<!-- Generator: Adobe Illustrator 20.0.0, SVG Export Plug-In . SVG Version: 6.00 Build 0)  -->
<svg version="1.1" id="Layer_1" xmlns="http://www.w3.org/2000/svg" xmlns:xlink="http://www.w3.org/1999/xlink" x="0px" y="0px"
	 viewBox="0 0 612 792" style="enable-background:new 0 0 612 792;" xml:space="preserve">
<path d="M330.1,107.6c-108.9,26.8-223.9,95.3-275.5,198.7c-21.8,43.8-31,94.3-22.4,142.4c4.7,26.4,14.4,50.4,27.9,71.5
	c-0.8-0.8-1.6-1.6-2.3-2.4c-1,2.3-1.9,4.6-2.9,6.8c-1,2.3-1.9,4.6-2.9,7c-0.9,2.3-1.9,4.6-2.8,6.9c-1.7,4.6-3.5,9.2-5.2,13.8
	c-6.6,18.4-12.3,36.3-16.8,53.5c-2.4,8.6-4.3,17-6.3,25.1c-1,4.1-1.8,8.1-2.6,12c-0.8,3.9-1.6,7.8-2.4,11.6c-0.7,3.8-1.4,7.5-2,11.2
	c-0.6,3.6-1.3,7.2-1.9,10.7c-1,7-2.1,13.6-2.9,19.8c-0.7,6.2-1.5,12-2.1,17.4c-0.6,5.4-1,10.4-1.4,14.8c-0.2,2.2-0.4,4.4-0.5,6.4
	c-0.2,2-0.2,3.9-0.4,5.6c-0.2,3.5-0.4,6.5-0.5,8.9c-0.1,2.4-0.2,4.3-0.2,5.5c0,1.2-0.1,1.9-0.1,1.9s0.2-0.6,0.6-1.8
	c0.4-1.2,1.1-2.9,1.9-5.2c1.6-4.5,3.8-11.2,6.8-19.7c2.9-8.4,6.4-18.7,10.4-30.4c2.1-5.8,4.2-12.1,6.5-18.6
	c2.3-6.5,4.8-13.4,7.3-20.5c1.4-3.5,2.7-7.2,4-10.9c1.4-3.7,2.7-7.5,4.2-11.2c2.9-7.6,5.8-15.5,9.1-23.4c6.3-16.1,13.4-32.7,21-49.8
	c1.9-4.2,3.9-8.5,5.9-12.8c1-2.2,2-4.3,3-6.4c0.5-1,0.9-1.9,1.4-2.9c-0.1-0.1-0.3-0.2-0.4-0.3c0-0.1,0.1-0.2,0.1-0.3
	c2.1-4.6,4.2-9.3,6.4-14c2.3-4.6,4.6-9.2,6.9-13.9l1.7-3.5c0.6-1.2,1.2-2.3,1.9-3.5c1.3-2.3,2.5-4.6,3.8-7c1.3-2.3,2.5-4.6,3.8-7
	c0.6-1.2,1.3-2.3,1.9-3.4l1.9-3.3l3.9-6.6l1.9-3.3l1-1.6l0.6-1.1l0.5-0.8c5.6-8.9,11.4-17.7,17.4-26.2c1.5-2.1,3.1-4.2,4.6-6.4
	c1.5-2.1,3.1-4.2,4.7-6.3c3.1-4.2,6.4-8.2,9.6-12.3c6.5-8,13.2-15.8,20-23.3c6.9-7.4,13.8-14.7,21-21.5c7.1-6.8,14.3-13.4,21.5-19.4
	c7.2-6.2,14.5-11.9,21.7-17.3c14.5-10.7,28.8-20,42.5-27.7c3.5-1.9,6.8-3.7,10.1-5.5c3.3-1.7,6.6-3.4,9.8-5
	c6.4-3.1,12.6-5.9,18.4-8.4c11.7-4.9,22.1-8.5,30.8-11.2c2.2-0.7,4.2-1.3,6.1-1.8c1.9-0.6,3.8-1,5.5-1.5c1.7-0.4,3.3-0.9,4.7-1.2
	c1.4-0.4,2.8-0.6,3.9-0.9c2.3-0.5,4.2-0.9,5.4-1.2c1.2-0.3,1.8-0.4,1.8-0.4s-0.6,0.3-1.6,0.9c-1.1,0.6-2.7,1.5-4.8,2.7
	c-2.1,1.1-4.7,2.7-7.7,4.4c-3,1.7-6.4,3.8-10.2,6c-7.6,4.6-16.7,10.2-26.8,17.2c-10.1,6.9-21.3,15-33,24.3
	c-11.7,9.3-23.9,19.8-36.3,31.4c-1.6,1.4-3.1,2.9-4.6,4.4c-1.5,1.5-3.1,3-4.7,4.5c-3.1,3.1-6.2,6.2-9.3,9.4
	c-3.1,3.2-6.2,6.5-9.3,9.8c-1.6,1.6-3.1,3.4-4.6,5c-1.5,1.7-3.1,3.4-4.6,5.1c-1.5,1.7-3.1,3.5-4.6,5.2c-1.5,1.8-3,3.5-4.6,5.3
	c-3.1,3.5-6,7.2-9.1,10.9c-3,3.7-6,7.4-8.9,11.2c-3,3.8-5.9,7.6-8.8,11.5c-5.8,7.8-11.5,15.7-17,23.8c-5.5,8.1-10.9,16.3-16.1,24.7
	c-2.6,4.3-5.1,8.5-7.7,12.8l-2,3.3c-0.7,1.1-1.3,2.2-1.9,3.2c-1.2,2.1-2.4,4.2-3.6,6.3c-1.2,2.1-2.4,4.2-3.6,6.3l-1.8,3.2l-1.7,3.2
	c-2.3,4.3-4.6,8.6-6.9,12.9c-2.3,4.3-4.4,8.7-6.6,13c-1.1,2.2-2.2,4.3-3.3,6.5c-1,2.2-2.1,4.3-3.1,6.5c-0.6,1.2-1.1,2.4-1.7,3.5
	c57.4,42,136,53.7,206,18.9c76.7-38.1,125.3-122.6,160.6-205.9c7.9-18.6,15.1-37.2,21.8-55.1c5.1-13.8,10-27.2,14.6-40.1
	c9.5-26.6,19.2-53.7,30.9-79.9c9.6-21.3,20.5-41.9,33.7-60.9c9.8-14.1,21-27.3,33.8-39.2C519.8,95.5,422.7,84.8,330.1,107.6z"/>
</svg>
